<?xml version="1.0" standalone="no"?>
<!DOCTYPE svg PUBLIC "-//W3C//DTD SVG 20010904//EN"
 "http://www.w3.org/TR/2001/REC-SVG-20010904/DTD/svg10.dtd">
<svg version="1.0" xmlns="http://www.w3.org/2000/svg"
 width="1480.000000pt" height="1480.000000pt" viewBox="0 0 1480.000000 1480.000000"
 preserveAspectRatio="xMidYMid meet">
<metadata>
Created by potrace 1.14, written by Peter Selinger 2001-2017
</metadata>
<g transform="translate(0.000000,1480.000000) scale(0.100000,-0.100000)"
fill="#000000" stroke="none">
<path d="M11167 14790 c-107 -27 -231 -128 -280 -230 -71 -146 -56 -332 39
-455 19 -25 34 -49 34 -53 0 -11 -1553 -1559 -1577 -1571 -12 -6 -30 -11 -40
-11 -10 0 -95 33 -189 74 -1472 641 -3142 717 -4659 211 -1403 -467 -2606
-1393 -3421 -2630 -557 -847 -906 -1793 -1028 -2785 -36 -290 -41 -391 -41
-800 0 -444 9 -577 61 -940 243 -1703 1157 -3243 2546 -4291 969 -730 2098
-1166 3328 -1285 226 -21 758 -30 990 -15 912 58 1748 284 2545 687 1284 649
2313 1690 2945 2979 220 450 357 825 475 1300 345 1393 221 2865 -351 4179
-41 94 -74 179 -74 189 0 10 5 28 11 40 12 24 1560 1577 1571 1577 4 0 28 -15
53 -34 96 -74 244 -103 365 -72 128 33 235 122 294 246 29 61 31 72 31 180 0
109 -2 119 -33 185 -32 67 -93 131 -1630 1667 -1542 1542 -1599 1598 -1667
1630 -62 28 -82 33 -165 35 -52 1 -112 -2 -133 -7z m197 -182 c36 -10 239
-209 1629 -1597 942 -941 1594 -1600 1604 -1621 22 -47 28 -130 13 -186 -8
-27 -30 -65 -57 -94 -82 -92 -204 -113 -311 -55 -67 36 -3161 3132 -3191 3192
-52 105 -33 216 52 298 29 28 68 56 87 62 47 15 124 16 174 1z m1148 -2095
c775 -775 1408 -1412 1408 -1418 0 -5 -360 -370 -799 -810 l-800 -800 -16 -59
c-25 -87 -16 -142 49 -290 679 -1533 734 -3246 154 -4801 -703 -1886 -2277
-3350 -4200 -3906 -561 -162 -1055 -235 -1653 -246 -339 -6 -539 3 -845 37
-1000 113 -1996 482 -2830 1048 -1508 1024 -2497 2615 -2745 4417 -48 352 -69
903 -46 1245 88 1324 562 2545 1387 3576 732 915 1701 1613 2799 2016 1081
397 2270 489 3405 262 459 -91 910 -233 1325 -417 151 -68 164 -71 235 -72 58
0 85 5 120 22 32 16 265 243 835 813 434 434 794 790 800 790 5 0 643 -633
1417 -1407z"/>
<path d="M4375 11644 c-502 -62 -946 -232 -1405 -538 -670 -446 -1241 -1121
-1641 -1941 -123 -252 -208 -462 -299 -735 -410 -1230 -423 -2561 -36 -3715
337 -1002 1003 -1970 1825 -2653 704 -586 1480 -941 2231 -1023 164 -18 478
-15 630 5 238 32 483 94 617 156 323 151 518 427 615 871 32 147 32 385 0 552
-28 147 -88 385 -182 717 -147 522 -188 708 -197 905 -4 93 -2 134 11 183 57
223 237 382 432 382 150 0 288 -98 389 -275 18 -33 56 -120 84 -193 96 -255
203 -414 317 -472 97 -48 221 -38 316 28 108 74 194 190 265 357 233 551 344
1159 346 1885 1 528 -45 972 -159 1538 -220 1093 -568 1901 -1125 2606 -131
166 -455 492 -621 624 -492 392 -1029 634 -1608 723 -181 28 -626 35 -805 13z
m1821 -1318 c305 -98 501 -422 463 -766 -28 -249 -142 -483 -321 -656 -143
-139 -305 -227 -470 -254 -195 -31 -362 22 -499 159 -121 121 -175 254 -186
457 -13 257 80 553 239 765 208 276 494 385 774 295z m-2668 -42 c155 -32 268
-93 398 -216 253 -240 391 -636 329 -946 -39 -193 -169 -363 -336 -441 -108
-50 -173 -65 -284 -64 -324 2 -664 236 -835 573 -82 162 -120 353 -101 495 23
162 83 285 196 399 171 172 407 247 633 200z m3837 -2016 c153 -32 303 -151
383 -305 61 -118 84 -213 84 -353 0 -252 -101 -481 -292 -663 -179 -172 -393
-269 -625 -283 -390 -25 -671 291 -624 703 64 572 580 1005 1074 901z m-4997
-138 c425 -54 800 -357 892 -724 79 -314 -93 -610 -415 -712 -235 -75 -524
-45 -780 80 -305 149 -477 383 -492 666 -18 331 219 624 553 684 98 18 138 19
242 6z m343 -2283 c428 -111 721 -422 721 -767 0 -257 -161 -475 -424 -571
-481 -176 -1111 62 -1269 480 -93 245 -40 490 146 676 80 80 180 143 279 175
146 47 380 50 547 7z m2684 -2392 c303 -88 514 -308 586 -612 28 -117 23 -311
-11 -418 -74 -233 -226 -408 -441 -509 -109 -52 -179 -68 -319 -73 -155 -6
-261 16 -395 82 -216 107 -373 301 -437 540 -29 111 -29 288 1 400 87 326 349
562 684 616 86 13 235 2 332 -26z"/>
<path d="M12952 11327 c-152 -56 -198 -256 -86 -371 49 -50 95 -69 171 -69 51
-1 70 4 110 29 87 54 131 161 104 260 -14 52 -74 122 -125 145 -46 21 -124 23
-174 6z m138 -112 c41 -21 64 -68 57 -118 -10 -76 -89 -123 -160 -94 -40 17
-77 68 -77 105 0 91 99 149 180 107z"/>
<path d="M11845 11077 c-311 -81 -411 -477 -175 -691 200 -180 523 -113 638
132 24 51 27 69 27 167 0 104 -2 114 -32 176 -82 167 -283 261 -458 216z m182
-112 c120 -36 207 -153 207 -280 0 -51 -7 -76 -33 -129 -87 -177 -305 -220
-451 -90 -77 70 -95 111 -95 219 0 108 18 149 94 217 80 72 175 94 278 63z"/>
<path d="M11291 9855 c-100 -28 -195 -119 -221 -213 -41 -150 33 -313 173
-377 73 -35 190 -35 262 -1 237 111 246 447 15 563 -79 40 -153 49 -229 28z
m150 -110 c170 -60 188 -294 29 -375 -80 -40 -158 -32 -225 23 -122 100 -87
299 61 352 51 18 82 18 135 0z"/>
<path d="M9720 8789 c-86 -54 -89 -67 -111 -428 -73 -1218 -177 -2478 -300
-3640 -39 -368 -40 -386 -24 -427 18 -48 80 -109 132 -130 92 -39 239 -25 320
29 84 56 89 72 107 387 72 1232 120 2625 128 3715 l3 360 -24 48 c-32 65 -79
99 -144 104 -41 3 -60 -1 -87 -18z"/>
<path d="M11194 8676 c-193 -44 -364 -203 -425 -396 -24 -75 -28 -224 -10
-305 47 -200 227 -379 431 -426 82 -18 223 -14 300 10 256 80 429 334 407 596
-20 235 -179 438 -396 506 -85 26 -226 33 -307 15z m239 -111 c222 -58 370
-260 354 -485 -19 -280 -283 -484 -553 -427 -95 20 -166 58 -235 124 -134 128
-180 321 -117 492 85 229 321 356 551 296z"/>
<path d="M12228 6095 c-38 -21 -45 -38 -53 -127 -7 -77 -7 -77 23 -108 21 -21
40 -30 62 -30 68 0 94 37 105 146 6 65 5 73 -17 98 -28 33 -82 42 -120 21z"/>
<path d="M12145 5480 c-35 -14 -42 -31 -79 -197 -101 -450 -249 -865 -457
-1283 -218 -436 -463 -800 -783 -1163 -73 -83 -86 -103 -86 -133 0 -49 36 -84
87 -84 43 0 70 24 218 195 381 441 739 1053 963 1645 94 248 182 546 237 802
32 150 32 163 -4 199 -30 29 -58 35 -96 19z"/>
<path d="M9158 3832 c-164 -172 -233 -308 -299 -594 -22 -93 -46 -186 -55
-206 -23 -55 -81 -109 -138 -129 -99 -34 -372 -11 -616 52 -30 8 -56 13 -58
11 -9 -10 127 -95 243 -152 312 -153 664 -192 988 -110 330 84 575 294 641
552 23 89 21 260 -3 357 -18 69 -69 202 -90 236 -7 12 -15 10 -42 -7 -134 -81
-342 -62 -466 42 l-31 26 -74 -78z"/>
<path d="M13494 14331 c-23 -10 -54 -36 -70 -57 -26 -33 -29 -46 -29 -109 0
-63 3 -76 29 -109 50 -66 145 -93 219 -62 62 25 117 112 117 181 -1 32 -35 97
-66 127 -55 51 -128 62 -200 29z m131 -116 c14 -13 25 -36 25 -50 0 -14 -11
-37 -25 -50 -48 -49 -125 -19 -125 50 0 69 77 99 125 50z"/>
<path d="M13765 13436 c-148 -65 -190 -260 -78 -367 55 -53 97 -71 164 -71
158 0 261 140 218 295 -13 49 -73 115 -124 138 -47 22 -136 24 -180 5z m145
-111 c62 -32 78 -129 29 -181 -93 -100 -252 7 -194 130 29 62 102 84 165 51z"/>
</g>
</svg>
