<svg xmlns="http://www.w3.org/2000/svg" viewBox="0 0 73000 7500"><path d="M13093 5167c-286 827-884 1513-1833 1513-1235 0-2223-1006-2223-2722s975-2855 2314-2855c507 0 865 172 1150 351l169-289h221l26 1997h-182c-306-1186-780-1810-1352-1810-761 0-1138 983-1138 2473 0 1630 494 2418 1248 2418 670 0 1079-437 1424-1186l176 109Zm3737-429c0 1084-553 1942-1638 1942-878 0-1599-725-1599-1919 0-1115 631-1903 1625-1903s1612 788 1612 1880Zm-1047-8c0-819-78-1685-559-1685-507 0-579 920-579 1669 0 936 110 1763 572 1763s566-803 566-1747Zm4401 851c-201 608-683 1100-1267 1100-1040 0-1528-842-1528-1934 0-983 559-1888 1573-1888 741 0 1092 390 1092 913 0 312-169 562-500 562-312 0-501-226-501-554 0-148 117-382 143-499-20-117-71-226-228-226-312 0-553 491-553 1630 0 889 312 1513 767 1513s676-242 858-725l143 109Zm3659-843c0 1084-553 1942-1638 1942-878 0-1599-725-1599-1919 0-1115 630-1903 1625-1903s1612 788 1612 1880Zm-1047-8c0-819-78-1685-559-1685-507 0-579 920-579 1669 0 936 111 1763 572 1763s565-803 565-1747Zm4896 796c-13 655-208 1139-793 1139-416 0-618-218-748-507h-19c-215 273-423 523-930 523-442 0-787-374-787-889 0-663 312-866 637-1006 390-172 917-351 1079-499v-452c0-265 0-788-371-788-162 0-267 86-318 148 20 125 117 351 117 593 0 172-195 445-533 445s-468-281-468-538c0-484 696-835 1255-835 696 0 1268 133 1268 1170 0 710-39 1544-39 1802 0 125 71 367 234 367 195 0 247-320 254-671h162Zm-1554-991c-449 211-734 382-734 1038 0 460 143 616 325 616 221 0 286-117 383-296l26-1357Zm7546 632c-286 827-884 1513-1833 1513-1235 0-2223-1006-2223-2722s975-2855 2314-2855c507 0 865 172 1151 351l169-289h221l26 1997h-182c-306-1186-780-1810-1352-1810-761 0-1138 983-1138 2473 0 1630 494 2418 1248 2418 670 0 1079-437 1424-1186l175 109Zm3738-429c0 1084-553 1942-1638 1942-877 0-1599-725-1599-1919 0-1115 631-1903 1625-1903s1612 788 1612 1880Zm-1046-8c0-819-78-1685-559-1685-507 0-579 920-579 1669 0 936 111 1763 572 1763s566-803 566-1747Zm3340 1834h-1827V6400c104-8 189-23 273-62 124-55 169-172 169-343v-4400c0-203-72-367-176-452-78-62-331-140-448-148V839l1515-94 45 55v5156c0 172 52 289 169 351 91 47 162 78 279 94v164Zm3692-1826c0 1084-553 1942-1638 1942-878 0-1599-725-1599-1919 0-1115 631-1903 1625-1903s1612 788 1612 1880Zm-1046-8c0-819-78-1685-559-1685-507 0-579 920-579 1669 0 936 111 1763 572 1763s566-803 566-1747Zm4374-1146c0 367-202 671-501 671-279 0-481-187-481-507 0-140 58-281 78-374-280 8-462 265-514 374v2215c0 172 65 289 175 343 104 55 332 86 429 94v164h-1983V6400c104-8 188-23 273-62 123-55 162-172 162-343V3686c0-148-72-328-169-413-71-62-215-109-325-117V3000l1391-94 46 55v523h13c260-406 527-608 839-608s566 281 566 710Zm6006 1295-85 1685h-3959v-179c110-16 416-62 494-101 156-78 195-218 195-390V1938c0-172-32-304-195-382-124-62-384-125-494-140v-179h2438v179c-117 16-345 55-462 101-156 62-202 211-202 382v3752c0 608 111 671 689 671 325 0 663-16 812-195 221-265 481-866 611-1248h156Zm3712 647c-13 655-208 1139-793 1139-416 0-617-218-748-507h-19c-215 273-423 523-930 523-442 0-787-374-787-889 0-663 312-866 637-1006 390-172 917-351 1079-499v-452c0-265 0-788-371-788-162 0-267 86-319 148 20 125 117 351 117 593 0 172-195 445-533 445s-468-281-468-538c0-484 696-835 1254-835 696 0 1268 133 1268 1170 0 710-39 1544-39 1802 0 125 72 367 234 367 195 0 247-320 254-671h162ZM54900 4535c-448 211-734 382-734 1038 0 460 143 616 325 616 221 0 286-117 383-296l26-1357Zm5200 242c0 1100-637 1903-1489 1903-663 0-936-304-1105-468l-403 507-117-62c20-312 39-850 39-1412V1571c0-172-72-359-176-445-78-62-305-125-416-133V837l1489-94 46 55v2551l26 8c143-195 429-499 826-499 748 0 1281 733 1281 1919Zm-1040 55c0-764-124-1513-618-1513-241 0-338 109-475 304v2278c58 242 188 577 501 577 371 0 592-647 592-1646Zm7741 1732h-2399v-179c221-23 637-117 637-312 0-62-13-125-26-164l-364-1162h-1398c-39 125-182 647-208 741-58 203-78 382-78 484 0 273 488 390 709 413v179h-1755v-179c117-16 305-55 416-140 162-125 273-343 364-608 202-601 1229-3806 1450-4485h494c306 920 1385 4384 1502 4719 52 156 111 257 260 367 117 86 286 133 396 148v179Zm-2249-2122-611-1888-592 1888h1203Zm5252-858c0 367-202 671-501 671-279 0-481-187-481-507 0-140 58-281 78-374-280 8-462 265-514 374v2215c0 172 65 289 175 343 104 55 332 86 429 94v164h-1983V6400c104-8 188-23 273-62 123-55 162-172 162-343V3686c0-148-72-328-169-413-71-62-215-109-325-117V3000l1391-94 46 55v523h13c260-406 527-608 839-608s566 281 566 710Zm2639 1888c-13 632-260 1193-943 1193-598 0-897-421-897-1115V3304h-552v-335h565V1838h923v1131h819v335h-819v2192c0 312 85 632 377 632s345-312 358-655h169Z" fill="#fff" stroke="#000" stroke-linecap="round" stroke-linejoin="round"/><path d="M3294 7209c-54 0-108-1-162-4C1639 7127 403 5947 256 4460c-86-867 190-1701 777-2349 580-641 1404-1008 2260-1008 109 0 221 6 330 18 332 36 653 125 955 265a91.5 91.5 0 00 104-18L5450 600l1400 1400-768 768c-27 27-35 69-18 104 164 354 258 731 278 1123 44 844-253 1646-836 2261-584 615-1370 954-2212 954Z" fill="#fff"/><path d="m5451 657 1342 1342-739 739c-39 39-50 100-27 150 162 349 254 721 275 1107 43 832-249 1624-824 2230-576 607-1351 941-2183 941-53 0-107-1-160-4-1473-77-2692-1241-2837-2708-85-855 188-1678 766-2317 573-632 1385-994 2229-994 108 0 218 6 326 17 327 35 644 123 942 261 18 8 37 12 56 12 36 0 69-14 94-39l739-739m0-106c-6 0-13 2-18 7l-780 780c-10 10-23 15-36 15-7 0-14-2-21-5a3092.4 3092.4 0 00-1303-287C1493 1059 33 2623 214 4461c149 1511 1385 2702 2915 2782 55 3 110 4 164 4 1757 0 3183-1481 3090-3258-21-405-120-789-282-1138a50.4 50.4 0 01 10-57l780-780c10-10 10-26 0-35L5468 556s-11-7-18-7Z"/><path d="M6994 2080c-44 0-85-17-117-48L5418 573a166.6 166.6 0 01 0-234c31-32 73-48 117-48s85 17 117 48l1459 1459c64 64 64 169 0 233-31 31-73 48-117 48Z" fill="#fff"/><path d="M5535 333c33 0 64 13 88 36l1459 1459c48 48 48 127 0 175-23 23-54 36-88 36s-64-13-88-36L5447 544c-23-23-36-54-36-88s13-64 36-88 54-36 88-36m0-83a205.9 205.9 0 00-146 352L6848 2060c40 40 93 60 146 60a205.9 205.9 0 00 146-352L5681 309c-40-40-93-60-146-60Z"/><path d="M5321 5970c331-353 552-813 641-1274" fill="none" stroke="#000" stroke-linecap="round" stroke-linejoin="round" stroke-width="83"/><path d="M5964 4394c-3 18-4 36-6 54-2 23 22 44 43 43 25-1 41-19 43-43 0-6 1-13 2-19v-9 4-6c2-12 2-23-4-33a43.3 43.3 0 00-26-20c-21-5-49 6-53 30Z"/><circle fill="#fff" cx="5848" cy="2196" r="165" stroke="#000" stroke-miterlimit="10" stroke-width="50"/><circle fill="#fff" cx="5555" cy="3413" r="248" stroke="#000" stroke-miterlimit="10" stroke-width="50"/><circle fill="#fff" cx="6751" cy="996" r="83" stroke="#000" stroke-miterlimit="10" stroke-width="50"/><circle fill="#fff" cx="6619" cy="550" r="62" stroke="#000" stroke-miterlimit="10" stroke-width="50"/><circle fill="#fff" cx="5580" cy="2733" r="124" stroke="#000" stroke-miterlimit="10" stroke-width="50"/><circle fill="#fff" cx="6363" cy="1994" r="83" stroke="#000" stroke-miterlimit="10" stroke-width="50"/><path d="M4569 5403c56 65 184 75 247 21 260 485-416 745-837 423 611 149 245-139 590-444Zm270-2319c-44-3-81 37-84 82-37 671-93 1342-166 2013-6 62 48 108 121 111h1c73 3 135-37 138-91 41-671 65-1342 70-2013 0-53-35-99-79-103ZM3480 6190c29-243-226-794-190-1019 33-202 314-330 434 22 130 382 338 237 412 69 223-508 233-1167 38-1906-382-1449-1580-1937-2464-1424C704 2516 241 4034 741 5203c445 1042 1480 1736 2298 1523 89-23 386-68 441-536ZM1476 2662c25-197 241-339 444-264s324 321 298 518-218 313-421 238-347-295-321-492Zm-38 1443c-216 7-437-115-487-307s88-391 305-397 437 148 487 340-88 358-305 364Zm1210-1268c6-216 141-443 336-482s376 126 370 342-170 422-364 461-348-105-341-322Zm530 895c37-203 200-391 429-401 198-9 332 181 293 394s-235 368-434 376-328-156-289-369Zm-1901 742c214-35 451 78 526 262s-42 370-255 404-451-62-526-246 42-386 255-421ZM2671 5600c216 13 381 199 369 415s-198 381-414 367-381-199-369-415 198-381 414-367Z"/></svg>
